<svg height="500" width="500" xmlns="http://www.w3.org/2000/svg">
<rect width="100%" height="100%" fill="#EEEEEE" />
<circle cx="68.07819391016702" cy="455.8837328562064" fill="#BF36C022" r="5"/>
<circle cx="131.7509554667841" cy="359.6147960817658" fill="#BF36C022" r="5"/>
<circle cx="288.93174598112654" cy="496.09774814174546" fill="#BF36C022" r="5"/>
<circle cx="39.1301446567588" cy="85.8586438087532" fill="#BF36C022" r="5"/>
<circle cx="62.63820208162653" cy="272.17679141907286" fill="#BF36C022" r="5"/>
<circle cx="410.95686806895657" cy="67.76614217916078" fill="#BF36C022" r="5"/>
<circle cx="120.84782830569554" cy="136.04450593833664" fill="#BF36C022" r="5"/>
<circle cx="442.87534565046417" cy="275.9593250804112" fill="#BF36C022" r="5"/>
<circle cx="38.820195843102375" cy="321.84518411904327" fill="#BF36C022" r="5"/>
<circle cx="339.53468238614045" cy="217.27367998732865" fill="#BF36C022" r="5"/>
<circle cx="196.44289931572604" cy="65.96189666946341" fill="#BF36C022" r="5"/>
<circle cx="128.76413381773568" cy="433.6505057843667" fill="#BF36C022" r="5"/>
<circle cx="68.06124500791657" cy="478.309021182843" fill="#BF36C022" r="5"/>
<circle cx="400.64640440213617" cy="55.91881799582289" fill="#BF36C022" r="5"/>
<circle cx="433.5610154095507" cy="89.52246107577324" fill="#BF36C022" r="5"/>
<circle cx="115.61608902807255" cy="425.77005565899015" fill="#BF36C022" r="5"/>
<circle cx="364.0462484945772" cy="9.91402023377719" fill="#BF36C022" r="5"/>
<circle cx="357.3547656448975" cy="372.14908004793654" fill="#BF36C022" r="5"/>
<circle cx="351.1608169815071" cy="309.44985959782764" fill="#BF36C022" r="5"/>
<circle cx="461.0348687672339" cy="469.5353033736458" fill="#BF36C022" r="5"/>
</svg>