<svg height="500" width="500" xmlns="http://www.w3.org/2000/svg">
<rect width="100%" height="100%" fill="#EEEEEE" />
<circle cx="107.98485284879568" cy="356.2040989372241" fill="#E823B836" r="5"/>
<circle cx="452.64502384120965" cy="467.0631160762346" fill="#E823B836" r="5"/>
<circle cx="229.42199488232666" cy="413.1388074021542" fill="#E823B836" r="5"/>
<circle cx="4.6944491185452195" cy="369.4167452833511" fill="#E823B836" r="5"/>
<circle cx="30.37884373670908" cy="387.4305881602301" fill="#E823B836" r="5"/>
<circle cx="463.05285811212616" cy="247.16200931194982" fill="#E823B836" r="5"/>
<circle cx="99.12754290242279" cy="283.27549657091083" fill="#E823B836" r="5"/>
<circle cx="440.2901559805856" cy="199.204562846433" fill="#E823B836" r="5"/>
<circle cx="376.4914979007919" cy="172.53860749987285" fill="#E823B836" r="5"/>
<circle cx="66.03367646513283" cy="148.84434072922818" fill="#E823B836" r="5"/>
<circle cx="283.03632009475496" cy="261.17849473441976" fill="#E823B836" r="5"/>
<circle cx="343.5046017398736" cy="427.4729800953434" fill="#E823B836" r="5"/>
<circle cx="248.21841468332977" cy="102.39739430967256" fill="#E823B836" r="5"/>
<circle cx="0.09511176308019123" cy="26.918497956655468" fill="#E823B836" r="5"/>
<circle cx="150.721625184466" cy="298.1423145033705" fill="#E823B836" r="5"/>
<circle cx="286.46072898696247" cy="252.07548130073482" fill="#E823B836" r="5"/>
<circle cx="33.73859297401916" cy="303.0450361596084" fill="#E823B836" r="5"/>
<circle cx="436.1895417717796" cy="173.16080472662625" fill="#E823B836" r="5"/>
<circle cx="465.1388492671914" cy="493.1735150862532" fill="#E823B836" r="5"/>
<circle cx="186.2975380945569" cy="363.06950332088593" fill="#E823B836" r="5"/>
<circle cx="285.58266968815735" cy="110.7385619231375" fill="#E823B836" r="5"/>
<circle cx="413.5396093670969" cy="306.8764442011827" fill="#E823B836" r="5"/>
<circle cx="496.219301183515" cy="143.46245904971659" fill="#E823B836" r="5"/>
<circle cx="92.47320552884732" cy="450.39347916830917" fill="#E823B836" r="5"/>
<circle cx="394.53630988848295" cy="305.75975479532207" fill="#E823B836" r="5"/>
<circle cx="425.13529138701244" cy="98.67665969689956" fill="#E823B836" r="5"/>
<circle cx="469.7438673284773" cy="63.62245318489858" fill="#E823B836" r="5"/>
<circle cx="212.37619788596666" cy="276.6467018682275" fill="#E823B836" r="5"/>
<circle cx="490.71456082950436" cy="372.35454338337246" fill="#E823B836" r="5"/>
<circle cx="0.8612871177445804" cy="90.63673439684297" fill="#E823B836" r="5"/>
<circle cx="452.650541738792" cy="375.6963846075948" fill="#E823B836" r="5"/>
<circle cx="367.2388607494532" cy="235.8360392021998" fill="#E823B836" r="5"/>
<circle cx="230.628057067555" cy="273.8307214794072" fill="#E823B836" r="5"/>
<circle cx="234.41692457398216" cy="436.0704466025884" fill="#E823B836" r="5"/>
<circle cx="472.6042190061046" cy="243.6918701574305" fill="#E823B836" r="5"/>
<circle cx="369.9249453368546" cy="230.70040606105886" fill="#E823B836" r="5"/>
<circle cx="319.9358893406226" cy="317.2044821863465" fill="#E823B836" r="5"/>
<circle cx="403.67232755413903" cy="224.60187704560315" fill="#E823B836" r="5"/>
<circle cx="331.4831622596812" cy="311.7135100345709" fill="#E823B836" r="5"/>
<circle cx="37.36935207912829" cy="396.59188497550275" fill="#E823B836" r="5"/>
<circle cx="6.902404130961772" cy="496.8563226184615" fill="#E823B836" r="5"/>
<circle cx="152.9916471392179" cy="494.3137421094004" fill="#E823B836" r="5"/>
<circle cx="286.4993378509488" cy="234.45023212337796" fill="#E823B836" r="5"/>
</svg>