<svg height="500" width="500" xmlns="http://www.w3.org/2000/svg">
<rect width="100%" height="100%" fill="#EEEEEE" />
<circle cx="167.50994425037152" cy="123.1052946768029" fill="#53DDC856" r="5"/>
<circle cx="110.82704621407649" cy="156.86474830912437" fill="#53DDC856" r="5"/>
<circle cx="314.502860984991" cy="330.7700428812752" fill="#53DDC856" r="5"/>
<circle cx="275.9770819003636" cy="463.70427839583414" fill="#53DDC856" r="5"/>
<circle cx="492.32544410820867" cy="162.69970813029514" fill="#53DDC856" r="5"/>
<circle cx="137.4874347736778" cy="212.16379501977428" fill="#53DDC856" r="5"/>
<circle cx="498.7043233333793" cy="80.62984379791251" fill="#53DDC856" r="5"/>
<circle cx="228.92353368854552" cy="219.99020093673877" fill="#53DDC856" r="5"/>
<circle cx="298.61094025871654" cy="13.845136200222544" fill="#53DDC856" r="5"/>
<circle cx="115.27559149078562" cy="411.98985502904935" fill="#53DDC856" r="5"/>
<circle cx="34.959411105353176" cy="242.7196883026181" fill="#53DDC856" r="5"/>
<circle cx="121.19621754488266" cy="161.34650054133252" fill="#53DDC856" r="5"/>
<circle cx="84.60627592621252" cy="53.8706036059038" fill="#53DDC856" r="5"/>
<circle cx="440.96848831473176" cy="1.1006439985923324" fill="#53DDC856" r="5"/>
<circle cx="294.0053559992689" cy="257.69501168907675" fill="#53DDC856" r="5"/>
<circle cx="475.51626295860405" cy="449.7268164995466" fill="#53DDC856" r="5"/>
<circle cx="293.9190339745192" cy="281.4954580676898" fill="#53DDC856" r="5"/>
<circle cx="359.4246463394427" cy="468.49826711245004" fill="#53DDC856" r="5"/>
<circle cx="168.65698913301534" cy="469.5320238436133" fill="#53DDC856" r="5"/>
<circle cx="420.65531166558486" cy="139.19035765361556" fill="#53DDC856" r="5"/>
<circle cx="293.40422180131895" cy="211.5945832572606" fill="#53DDC856" r="5"/>
<circle cx="285.5363949649654" cy="152.03353799776755" fill="#53DDC856" r="5"/>
<circle cx="90.39272572595016" cy="128.5405911771217" fill="#53DDC856" r="5"/>
<circle cx="195.8290998378312" cy="30.069129998957283" fill="#53DDC856" r="5"/>
<circle cx="316.1750772626719" cy="103.9860573123981" fill="#53DDC856" r="5"/>
<circle cx="305.3896753997843" cy="92.50135793832762" fill="#53DDC856" r="5"/>
<circle cx="263.8817124589919" cy="469.5532452111303" fill="#53DDC856" r="5"/>
<circle cx="297.9469265155697" cy="296.3334371986978" fill="#53DDC856" r="5"/>
<circle cx="445.56293279347057" cy="133.82104988999959" fill="#53DDC856" r="5"/>
<circle cx="373.6006146131608" cy="245.084782518113" fill="#53DDC856" r="5"/>
<circle cx="32.480346360053375" cy="46.91038110438818" fill="#53DDC856" r="5"/>
<circle cx="5.0966685164243195" cy="166.47965406318326" fill="#53DDC856" r="5"/>
<circle cx="7.787012440833687" cy="394.1157539691983" fill="#53DDC856" r="5"/>
<circle cx="121.46493317241028" cy="425.2627639871761" fill="#53DDC856" r="5"/>
<circle cx="109.25804273273955" cy="365.0782161002915" fill="#53DDC856" r="5"/>
<circle cx="383.4634093964366" cy="338.1300423247243" fill="#53DDC856" r="5"/>
<circle cx="181.9009913427663" cy="443.7729278415313" fill="#53DDC856" r="5"/>
<circle cx="96.90292327224428" cy="496.71144415465096" fill="#53DDC856" r="5"/>
<circle cx="296.1985384625585" cy="354.28268135401873" fill="#53DDC856" r="5"/>
<circle cx="207.95761311049526" cy="109.55353891769528" fill="#53DDC856" r="5"/>
<circle cx="168.0311928020857" cy="59.96193311544253" fill="#53DDC856" r="5"/>
<circle cx="13.056049893929947" cy="437.17259024301666" fill="#53DDC856" r="5"/>
</svg>