<svg height="500" width="500" xmlns="http://www.w3.org/2000/svg">
<rect width="100%" height="100%" fill="#EEEEEE" />
<circle cx="400.58465697944985" cy="55.47664134764198" fill="#697F8F4E" r="5"/>
<circle cx="16.742022637774582" cy="276.38825604772626" fill="#697F8F4E" r="5"/>
<circle cx="403.55342345019807" cy="330.7515752124662" fill="#697F8F4E" r="5"/>
<circle cx="128.46248901024185" cy="109.71273611384949" fill="#697F8F4E" r="5"/>
<circle cx="345.9755293712866" cy="155.16490999698098" fill="#697F8F4E" r="5"/>
<circle cx="275.75349837961767" cy="149.8466068394159" fill="#697F8F4E" r="5"/>
<circle cx="127.07753752178222" cy="10.673658924282627" fill="#697F8F4E" r="5"/>
<circle cx="2.0093207381858273" cy="226.21020673846132" fill="#697F8F4E" r="5"/>
<circle cx="149.63087318279926" cy="314.59661497155383" fill="#697F8F4E" r="5"/>
<circle cx="23.06912954693064" cy="279.0091098417347" fill="#697F8F4E" r="5"/>
<circle cx="367.0111344589998" cy="165.43215035995567" fill="#697F8F4E" r="5"/>
<circle cx="489.33594353405687" cy="129.83020389416748" fill="#697F8F4E" r="5"/>
<circle cx="139.2473601469875" cy="39.93085420654619" fill="#697F8F4E" r="5"/>
<circle cx="132.56293710465297" cy="398.71175681306903" fill="#697F8F4E" r="5"/>
<circle cx="361.3918387207334" cy="153.05912433908867" fill="#697F8F4E" r="5"/>
<circle cx="251.34213339107185" cy="193.54364047725764" fill="#697F8F4E" r="5"/>
<circle cx="150.4171469279152" cy="61.22596155417516" fill="#697F8F4E" r="5"/>
<circle cx="360.4313259001268" cy="492.24862713792095" fill="#697F8F4E" r="5"/>
<circle cx="480.5726591841204" cy="198.91532251290872" fill="#697F8F4E" r="5"/>
<circle cx="254.14439984794674" cy="476.0661116552306" fill="#697F8F4E" r="5"/>
<circle cx="399.77717402914357" cy="474.43174546655155" fill="#697F8F4E" r="5"/>
<circle cx="374.6576380960382" cy="360.3027805680516" fill="#697F8F4E" r="5"/>
<circle cx="225.65228954088695" cy="137.83149701193713" fill="#697F8F4E" r="5"/>
<circle cx="387.79221985895015" cy="240.0018180702503" fill="#697F8F4E" r="5"/>
<circle cx="459.65643016640155" cy="317.5454560614433" fill="#697F8F4E" r="5"/>
<circle cx="257.05921815646457" cy="267.48012652609606" fill="#697F8F4E" r="5"/>
<circle cx="249.55748154928665" cy="154.89630078966135" fill="#697F8F4E" r="5"/>
<circle cx="289.3431701974007" cy="428.08133208298324" fill="#697F8F4E" r="5"/>
<circle cx="341.03147888534556" cy="54.19552517197269" fill="#697F8F4E" r="5"/>
<circle cx="81.26267176151971" cy="137.17085462501302" fill="#697F8F4E" r="5"/>
<circle cx="268.8453059885662" cy="204.58876670664432" fill="#697F8F4E" r="5"/>
<circle cx="41.80531025923063" cy="409.02078485171523" fill="#697F8F4E" r="5"/>
<circle cx="492.9112130802077" cy="329.5231250136261" fill="#697F8F4E" r="5"/>
<circle cx="475.54830373332743" cy="451.10731486164633" fill="#697F8F4E" r="5"/>
<circle cx="63.34592319399647" cy="186.69924070236004" fill="#697F8F4E" r="5"/>
<circle cx="315.0137658685289" cy="41.97642847866124" fill="#697F8F4E" r="5"/>
<circle cx="59.383188061714065" cy="125.30343543711922" fill="#697F8F4E" r="5"/>
<circle cx="166.76073059933086" cy="484.64530181108444" fill="#697F8F4E" r="5"/>
<circle cx="337.00973558661445" cy="477.4115653549382" fill="#697F8F4E" r="5"/>
<circle cx="320.4302428449491" cy="479.6568135040109" fill="#697F8F4E" r="5"/>
<circle cx="286.4673427748447" cy="329.29113128417447" fill="#697F8F4E" r="5"/>
<circle cx="159.7026843618076" cy="491.9067898703391" fill="#697F8F4E" r="5"/>
<circle cx="499.49979953368916" cy="420.4488776377955" fill="#697F8F4E" r="5"/>
<circle cx="361.3984091770705" cy="143.44102557022057" fill="#697F8F4E" r="5"/>
<circle cx="376.2355974918214" cy="207.2978837360449" fill="#697F8F4E" r="5"/>
<circle cx="348.8416064043352" cy="107.31355840857917" fill="#697F8F4E" r="5"/>
<circle cx="464.43850363548023" cy="437.4536862290611" fill="#697F8F4E" r="5"/>
<circle cx="15.891858499012317" cy="479.4377660566643" fill="#697F8F4E" r="5"/>
<circle cx="327.11263968687206" cy="430.06354557057966" fill="#697F8F4E" r="5"/>
</svg>