<svg height="500" width="500" xmlns="http://www.w3.org/2000/svg">
<rect width="100%" height="100%" fill="#EEEEEE" />
<circle cx="252.85166817629195" cy="38.566195153689094" fill="#C312BF9C" r="5"/>
<circle cx="269.30262805771093" cy="186.7646831386827" fill="#C312BF9C" r="5"/>
<circle cx="342.40208994544196" cy="346.6425567390356" fill="#C312BF9C" r="5"/>
<circle cx="70.51809707772618" cy="280.06979703431506" fill="#C312BF9C" r="5"/>
<circle cx="320.62258682520815" cy="30.62399526871807" fill="#C312BF9C" r="5"/>
<circle cx="403.7629276470211" cy="243.0388113953547" fill="#C312BF9C" r="5"/>
<circle cx="263.9129145019882" cy="334.2447190131906" fill="#C312BF9C" r="5"/>
<circle cx="130.5506831247585" cy="158.41344650391568" fill="#C312BF9C" r="5"/>
<circle cx="417.24695524093977" cy="197.92611728582293" fill="#C312BF9C" r="5"/>
<circle cx="294.69634266453346" cy="190.12456927441127" fill="#C312BF9C" r="5"/>
<circle cx="353.05797683988214" cy="393.9311879417677" fill="#C312BF9C" r="5"/>
<circle cx="307.7630214480578" cy="354.5322802120827" fill="#C312BF9C" r="5"/>
<circle cx="101.30284374561285" cy="47.10745974870646" fill="#C312BF9C" r="5"/>
<circle cx="496.5213825655612" cy="470.6452978131097" fill="#C312BF9C" r="5"/>
<circle cx="297.90419656879516" cy="486.1948051004532" fill="#C312BF9C" r="5"/>
<circle cx="95.9305447164204" cy="439.50202928047275" fill="#C312BF9C" r="5"/>
<circle cx="355.01665319475615" cy="298.4633289347683" fill="#C312BF9C" r="5"/>
<circle cx="173.4028614487895" cy="149.5482847658797" fill="#C312BF9C" r="5"/>
<circle cx="394.6756588858329" cy="198.2414997422242" fill="#C312BF9C" r="5"/>
<circle cx="96.77457855381223" cy="162.1904341143248" fill="#C312BF9C" r="5"/>
<circle cx="190.7038690631258" cy="301.95996245745954" fill="#C312BF9C" r="5"/>
<circle cx="131.70445879222774" cy="147.04274125259158" fill="#C312BF9C" r="5"/>
<circle cx="87.34338054597292" cy="349.5062550781075" fill="#C312BF9C" r="5"/>
<circle cx="55.15474801600963" cy="38.949758241157994" fill="#C312BF9C" r="5"/>
<circle cx="322.1909126478893" cy="73.06482749614486" fill="#C312BF9C" r="5"/>
<circle cx="214.73374951520867" cy="218.68881155413703" fill="#C312BF9C" r="5"/>
<circle cx="446.1799726604701" cy="86.2909659515362" fill="#C312BF9C" r="5"/>
<circle cx="368.5029322178188" cy="171.04510069463046" fill="#C312BF9C" r="5"/>
<circle cx="285.9857647174067" cy="461.5235258942425" fill="#C312BF9C" r="5"/>
<circle cx="208.40081385843905" cy="368.69802690892794" fill="#C312BF9C" r="5"/>
<circle cx="381.7356911900077" cy="494.0360383587694" fill="#C312BF9C" r="5"/>
<circle cx="344.3231475363699" cy="291.8101247267048" fill="#C312BF9C" r="5"/>
<circle cx="436.40329756007924" cy="435.8120601680253" fill="#C312BF9C" r="5"/>
<circle cx="388.2318127439945" cy="467.3409742061977" fill="#C312BF9C" r="5"/>
<circle cx="465.37835271374115" cy="452.95125363068854" fill="#C312BF9C" r="5"/>
<circle cx="205.7135673207971" cy="412.46309244975663" fill="#C312BF9C" r="5"/>
<circle cx="375.94846842720585" cy="351.5282216660592" fill="#C312BF9C" r="5"/>
<circle cx="492.44132162901366" cy="40.973338121058646" fill="#C312BF9C" r="5"/>
<circle cx="22.015950815180823" cy="142.2237775241008" fill="#C312BF9C" r="5"/>
<circle cx="199.67292460719892" cy="0.16493428498498555" fill="#C312BF9C" r="5"/>
<circle cx="416.7674350482957" cy="367.6645746317798" fill="#C312BF9C" r="5"/>
<circle cx="478.12492031993435" cy="436.9265272191587" fill="#C312BF9C" r="5"/>
<circle cx="294.82250074973143" cy="230.23112850697908" fill="#C312BF9C" r="5"/>
<circle cx="283.80160065797116" cy="218.50518897430032" fill="#C312BF9C" r="5"/>
<circle cx="143.8795240782467" cy="486.79828302879366" fill="#C312BF9C" r="5"/>
<circle cx="468.92306554249683" cy="426.88735082294056" fill="#C312BF9C" r="5"/>
<circle cx="161.5010133280376" cy="174.53133769119225" fill="#C312BF9C" r="5"/>
<circle cx="119.08372320634678" cy="17.665198950576503" fill="#C312BF9C" r="5"/>
<circle cx="255.3403924122108" cy="355.3674021587977" fill="#C312BF9C" r="5"/>
</svg>