<svg height="500" width="500" xmlns="http://www.w3.org/2000/svg">
<rect width="100%" height="100%" fill="#EEEEEE" />
<circle cx="2.5643087294424665" cy="79.2174226238055" fill="#80B8EDFE" r="5"/>
<circle cx="67.92525230335791" cy="26.993855782258773" fill="#80B8EDFE" r="5"/>
<circle cx="483.74873400971364" cy="464.67293417144185" fill="#80B8EDFE" r="5"/>
<circle cx="6.295254749042025" cy="364.7743614125687" fill="#80B8EDFE" r="5"/>
<circle cx="251.7534930336118" cy="389.49121489638014" fill="#80B8EDFE" r="5"/>
<circle cx="154.75378627744888" cy="45.607237977993606" fill="#80B8EDFE" r="5"/>
<circle cx="207.76118137907068" cy="44.673074714091776" fill="#80B8EDFE" r="5"/>
<circle cx="140.07267436145813" cy="206.80026785123113" fill="#80B8EDFE" r="5"/>
<circle cx="451.6214454359404" cy="476.3229113437902" fill="#80B8EDFE" r="5"/>
<circle cx="360.90433005552933" cy="407.07965918795117" fill="#80B8EDFE" r="5"/>
<circle cx="306.91789068379853" cy="239.52198448601587" fill="#80B8EDFE" r="5"/>
<circle cx="148.38587899373326" cy="87.0992375043729" fill="#80B8EDFE" r="5"/>
<circle cx="140.56061431749913" cy="262.5349774261116" fill="#80B8EDFE" r="5"/>
<circle cx="266.66464437204667" cy="357.353292207307" fill="#80B8EDFE" r="5"/>
<circle cx="412.77718550538265" cy="55.52815435554394" fill="#80B8EDFE" r="5"/>
<circle cx="389.3475873117128" cy="388.52110994568096" fill="#80B8EDFE" r="5"/>
<circle cx="448.32701027246236" cy="358.14193208261065" fill="#80B8EDFE" r="5"/>
<circle cx="94.86734683774314" cy="453.0953591964448" fill="#80B8EDFE" r="5"/>
<circle cx="358.4282261137702" cy="57.64387961844343" fill="#80B8EDFE" r="5"/>
<circle cx="17.78502814723837" cy="145.42722125064515" fill="#80B8EDFE" r="5"/>
<circle cx="246.65327289060252" cy="125.51224117585083" fill="#80B8EDFE" r="5"/>
<circle cx="149.690473159565" cy="299.2494799917451" fill="#80B8EDFE" r="5"/>
<circle cx="370.0699532251651" cy="135.66970766023448" fill="#80B8EDFE" r="5"/>
<circle cx="266.4488596231603" cy="134.61734127372486" fill="#80B8EDFE" r="5"/>
<circle cx="369.9139428226891" cy="119.2365330369081" fill="#80B8EDFE" r="5"/>
<circle cx="342.89831053487916" cy="343.3153386484001" fill="#80B8EDFE" r="5"/>
<circle cx="176.3887727217736" cy="458.1226289666072" fill="#80B8EDFE" r="5"/>
<circle cx="333.7995367994729" cy="430.6682511750729" fill="#80B8EDFE" r="5"/>
<circle cx="432.4400754524864" cy="230.8415455093597" fill="#80B8EDFE" r="5"/>
<circle cx="311.7961896697206" cy="443.35293347682233" fill="#80B8EDFE" r="5"/>
<circle cx="462.0629818904619" cy="447.7296000586116" fill="#80B8EDFE" r="5"/>
<circle cx="58.17009195598978" cy="327.22987098167476" fill="#80B8EDFE" r="5"/>
<circle cx="488.3778787943046" cy="324.3797098269175" fill="#80B8EDFE" r="5"/>
<circle cx="457.2520074229813" cy="387.4212228978993" fill="#80B8EDFE" r="5"/>
<circle cx="469.3879090162214" cy="481.4090795702386" fill="#80B8EDFE" r="5"/>
<circle cx="153.53950988611135" cy="54.92055483085402" fill="#80B8EDFE" r="5"/>
</svg>