<svg height="500" width="500" xmlns="http://www.w3.org/2000/svg">
<rect width="100%" height="100%" fill="#EEEEEE" />
<circle cx="249.02883919993207" cy="496.9674460490214" fill="#63285FCC" r="5"/>
<circle cx="210.75700047686678" cy="420.47416092304724" fill="#63285FCC" r="5"/>
<circle cx="239.67837028945277" cy="22.760829280783607" fill="#63285FCC" r="5"/>
<circle cx="225.52788214318403" cy="488.3642244568286" fill="#63285FCC" r="5"/>
<circle cx="220.11577921384668" cy="52.292118582723106" fill="#63285FCC" r="5"/>
<circle cx="320.2740112132877" cy="171.32862225468773" fill="#63285FCC" r="5"/>
<circle cx="457.18417427244606" cy="57.570479221795495" fill="#63285FCC" r="5"/>
<circle cx="29.44895500098322" cy="366.4980522111183" fill="#63285FCC" r="5"/>
<circle cx="284.8704873892943" cy="11.089731477557654" fill="#63285FCC" r="5"/>
<circle cx="121.39104774627587" cy="377.84894445642277" fill="#63285FCC" r="5"/>
<circle cx="325.56816085811886" cy="216.26603760847456" fill="#63285FCC" r="5"/>
<circle cx="278.5259000356761" cy="365.6430822104385" fill="#63285FCC" r="5"/>
<circle cx="290.1229019653131" cy="430.673086674347" fill="#63285FCC" r="5"/>
<circle cx="437.3344160079131" cy="494.91292005653486" fill="#63285FCC" r="5"/>
<circle cx="137.7076959019347" cy="400.02698757157594" fill="#63285FCC" r="5"/>
<circle cx="262.1492186331436" cy="232.9627878621246" fill="#63285FCC" r="5"/>
<circle cx="470.10165440527675" cy="46.502340102542185" fill="#63285FCC" r="5"/>
<circle cx="447.2505191053335" cy="3.5323291062463467" fill="#63285FCC" r="5"/>
<circle cx="268.61950646519455" cy="74.65180693840402" fill="#63285FCC" r="5"/>
<circle cx="76.68678581614553" cy="72.56212656640771" fill="#63285FCC" r="5"/>
<circle cx="199.04065800247176" cy="387.0897455755505" fill="#63285FCC" r="5"/>
<circle cx="235.2244242725489" cy="18.9888079635181" fill="#63285FCC" r="5"/>
<circle cx="206.2205907882025" cy="497.2239120318721" fill="#63285FCC" r="5"/>
<circle cx="99.24113412610215" cy="26.947518064176062" fill="#63285FCC" r="5"/>
<circle cx="175.3437803888304" cy="399.4181752734205" fill="#63285FCC" r="5"/>
<circle cx="171.58725007246105" cy="227.4224223997397" fill="#63285FCC" r="5"/>
<circle cx="310.0228611428841" cy="100.55976941490398" fill="#63285FCC" r="5"/>
<circle cx="74.63377132304673" cy="466.7427059261662" fill="#63285FCC" r="5"/>
<circle cx="374.59168971104924" cy="259.12518584523986" fill="#63285FCC" r="5"/>
<circle cx="471.42553774020524" cy="464.3186922304456" fill="#63285FCC" r="5"/>
<circle cx="192.95964293022033" cy="312.0819074625123" fill="#63285FCC" r="5"/>
<circle cx="199.5741876010239" cy="329.1370996873512" fill="#63285FCC" r="5"/>
<circle cx="467.3786627297519" cy="177.0202594166556" fill="#63285FCC" r="5"/>
<circle cx="238.63013213191368" cy="66.95251503334455" fill="#63285FCC" r="5"/>
<circle cx="48.154266732319606" cy="213.51340456142003" fill="#63285FCC" r="5"/>
<circle cx="217.20340030869394" cy="392.7127801166974" fill="#63285FCC" r="5"/>
<circle cx="282.75167310455447" cy="437.58144303730296" fill="#63285FCC" r="5"/>
<circle cx="330.1291943502523" cy="55.23063780378258" fill="#63285FCC" r="5"/>
<circle cx="373.0149412043727" cy="343.557238692396" fill="#63285FCC" r="5"/>
<circle cx="351.19651335608165" cy="299.0127580132385" fill="#63285FCC" r="5"/>
<circle cx="24.91727404143363" cy="267.9155804656587" fill="#63285FCC" r="5"/>
<circle cx="275.42748769377715" cy="141.1052529887801" fill="#63285FCC" r="5"/>
<circle cx="223.87502070803026" cy="353.8222353843514" fill="#63285FCC" r="5"/>
<circle cx="426.18282566354844" cy="236.35860666632652" fill="#63285FCC" r="5"/>
</svg>