<svg height="500" width="500" xmlns="http://www.w3.org/2000/svg">
<rect width="100%" height="100%" fill="#EEEEEE" />
<circle cx="495.6746332876182" cy="406.8261841353591" fill="#D033371F" r="5"/>
<circle cx="485.2549112348482" cy="174.66898076052354" fill="#D033371F" r="5"/>
<circle cx="252.42665265559756" cy="66.98402702001762" fill="#D033371F" r="5"/>
<circle cx="75.64810019902569" cy="18.955902827248465" fill="#D033371F" r="5"/>
<circle cx="46.56230717578126" cy="386.7601582677825" fill="#D033371F" r="5"/>
<circle cx="438.4043617660387" cy="367.12638221007865" fill="#D033371F" r="5"/>
<circle cx="133.36878568970005" cy="409.7361650076837" fill="#D033371F" r="5"/>
<circle cx="344.93403014744445" cy="163.9798415571179" fill="#D033371F" r="5"/>
<circle cx="43.74101716208835" cy="347.83377655643454" fill="#D033371F" r="5"/>
<circle cx="117.97625951033488" cy="303.7779108808005" fill="#D033371F" r="5"/>
<circle cx="28.505745211900642" cy="139.7545708159316" fill="#D033371F" r="5"/>
<circle cx="94.81593821020509" cy="495.5334846137957" fill="#D033371F" r="5"/>
<circle cx="280.43431913549426" cy="493.6886381959932" fill="#D033371F" r="5"/>
<circle cx="128.30109845139773" cy="240.25858722922462" fill="#D033371F" r="5"/>
<circle cx="197.25705362206273" cy="272.79970048456164" fill="#D033371F" r="5"/>
<circle cx="361.780098818536" cy="261.62964326466283" fill="#D033371F" r="5"/>
<circle cx="464.73790314025786" cy="360.2365155428986" fill="#D033371F" r="5"/>
<circle cx="90.68401950467077" cy="299.2446158729434" fill="#D033371F" r="5"/>
<circle cx="376.2505957901597" cy="429.5483978293989" fill="#D033371F" r="5"/>
<circle cx="354.00200896159527" cy="182.12407498548725" fill="#D033371F" r="5"/>
<circle cx="63.8712831632854" cy="93.46043941892049" fill="#D033371F" r="5"/>
<circle cx="302.50384703196994" cy="445.75945747709653" fill="#D033371F" r="5"/>
<circle cx="324.553153101475" cy="306.59852320074583" fill="#D033371F" r="5"/>
<circle cx="139.18086453812165" cy="458.72565953895605" fill="#D033371F" r="5"/>
<circle cx="362.60516502654036" cy="493.60207644004527" fill="#D033371F" r="5"/>
<circle cx="465.69888234476974" cy="24.364239676003212" fill="#D033371F" r="5"/>
<circle cx="58.93050497078168" cy="180.76886610082303" fill="#D033371F" r="5"/>
<circle cx="492.46809652950964" cy="267.71989912573497" fill="#D033371F" r="5"/>
<circle cx="354.51853268489515" cy="254.2305101952597" fill="#D033371F" r="5"/>
<circle cx="40.84869670804781" cy="19.58054308244484" fill="#D033371F" r="5"/>
<circle cx="393.02916148831866" cy="327.81761764557336" fill="#D033371F" r="5"/>
<circle cx="101.91677993947725" cy="471.11429001427217" fill="#D033371F" r="5"/>
</svg>