<svg height="500" width="500" xmlns="http://www.w3.org/2000/svg">
<rect width="100%" height="100%" fill="#EEEEEE" />
<circle cx="113.66906092637765" cy="157.1448107447563" fill="#DEFA96BA" r="5"/>
<circle cx="128.69278807635934" cy="401.5963290168197" fill="#DEFA96BA" r="5"/>
<circle cx="469.541721891095" cy="194.86354625816642" fill="#DEFA96BA" r="5"/>
<circle cx="168.6385565516683" cy="160.32467465822802" fill="#DEFA96BA" r="5"/>
<circle cx="150.1915917247201" cy="382.64497612676905" fill="#DEFA96BA" r="5"/>
<circle cx="495.48101017281164" cy="370.6933266120592" fill="#DEFA96BA" r="5"/>
<circle cx="366.76107819435896" cy="253.1566553556463" fill="#DEFA96BA" r="5"/>
<circle cx="424.9489039244294" cy="255.17679446500247" fill="#DEFA96BA" r="5"/>
<circle cx="50.40361562143637" cy="396.2159777368754" fill="#DEFA96BA" r="5"/>
<circle cx="455.73935758282215" cy="299.5433718907376" fill="#DEFA96BA" r="5"/>
<circle cx="491.08284637452806" cy="57.407490381480535" fill="#DEFA96BA" r="5"/>
<circle cx="326.2403039155848" cy="285.0729936528099" fill="#DEFA96BA" r="5"/>
<circle cx="176.91442644432823" cy="258.41975385005185" fill="#DEFA96BA" r="5"/>
<circle cx="125.30414097232637" cy="148.88325288200102" fill="#DEFA96BA" r="5"/>
<circle cx="225.70797777436917" cy="357.21756918326747" fill="#DEFA96BA" r="5"/>
<circle cx="32.325834300091735" cy="122.63187599494532" fill="#DEFA96BA" r="5"/>
<circle cx="268.32021025222645" cy="278.54051469596624" fill="#DEFA96BA" r="5"/>
<circle cx="182.951075693957" cy="469.86846766957126" fill="#DEFA96BA" r="5"/>
<circle cx="447.7560888258943" cy="75.67797941099909" fill="#DEFA96BA" r="5"/>
<circle cx="137.1166919093341" cy="151.96511530671933" fill="#DEFA96BA" r="5"/>
<circle cx="156.2411114612872" cy="52.80115202518089" fill="#DEFA96BA" r="5"/>
<circle cx="347.73210765923164" cy="97.16409102025372" fill="#DEFA96BA" r="5"/>
<circle cx="475.46145229674863" cy="498.58406635148657" fill="#DEFA96BA" r="5"/>
<circle cx="58.79491503824309" cy="305.4498813262299" fill="#DEFA96BA" r="5"/>
<circle cx="176.5688783712937" cy="83.7944330944922" fill="#DEFA96BA" r="5"/>
<circle cx="171.8280435414871" cy="382.2741912330214" fill="#DEFA96BA" r="5"/>
<circle cx="268.10080858348977" cy="134.8322558181169" fill="#DEFA96BA" r="5"/>
<circle cx="422.48583225516666" cy="251.98084474380906" fill="#DEFA96BA" r="5"/>
<circle cx="331.92682965013796" cy="95.50447019490917" fill="#DEFA96BA" r="5"/>
<circle cx="20.774501784091797" cy="74.0537898266135" fill="#DEFA96BA" r="5"/>
<circle cx="419.4051084968644" cy="446.93929222395434" fill="#DEFA96BA" r="5"/>
<circle cx="493.81985151751695" cy="186.90224560255658" fill="#DEFA96BA" r="5"/>
</svg>