<svg height="500" width="500" xmlns="http://www.w3.org/2000/svg">
<rect width="100%" height="100%" fill="#EEEEEE" />
<circle cx="496.3348582266036" cy="485.78332161510076" fill="#CCA581F4" r="5"/>
<circle cx="219.323960381044" cy="451.47345244302016" fill="#CCA581F4" r="5"/>
<circle cx="224.45618442360586" cy="111.1676897322679" fill="#CCA581F4" r="5"/>
<circle cx="439.852123338653" cy="112.5042461646544" fill="#CCA581F4" r="5"/>
<circle cx="333.19155739156656" cy="437.5072470819139" fill="#CCA581F4" r="5"/>
<circle cx="320.3268611485049" cy="49.87355523873816" fill="#CCA581F4" r="5"/>
<circle cx="89.76018341476701" cy="223.31822262619121" fill="#CCA581F4" r="5"/>
<circle cx="80.69274657815919" cy="251.1702689424314" fill="#CCA581F4" r="5"/>
<circle cx="88.82988464061671" cy="141.9501809656464" fill="#CCA581F4" r="5"/>
<circle cx="290.89463653921564" cy="133.85197517041252" fill="#CCA581F4" r="5"/>
<circle cx="194.16608187771917" cy="247.12192749195077" fill="#CCA581F4" r="5"/>
<circle cx="48.376814487746124" cy="121.76601754157038" fill="#CCA581F4" r="5"/>
<circle cx="7.281965179746776" cy="465.30509144594333" fill="#CCA581F4" r="5"/>
<circle cx="327.4433033141" cy="259.68320969732" fill="#CCA581F4" r="5"/>
<circle cx="179.44796739066874" cy="340.32660950224385" fill="#CCA581F4" r="5"/>
<circle cx="46.50358694768798" cy="324.77802483852275" fill="#CCA581F4" r="5"/>
<circle cx="452.2616301208211" cy="261.5511540403526" fill="#CCA581F4" r="5"/>
<circle cx="40.555403463890755" cy="322.1311720731509" fill="#CCA581F4" r="5"/>
<circle cx="24.40069629554687" cy="217.442952286028" fill="#CCA581F4" r="5"/>
<circle cx="175.83712160543888" cy="77.89205245074962" fill="#CCA581F4" r="5"/>
<circle cx="100.15429573305215" cy="124.85216053594309" fill="#CCA581F4" r="5"/>
<circle cx="374.73804867004577" cy="84.57717208090489" fill="#CCA581F4" r="5"/>
<circle cx="56.56710259395782" cy="429.6483124001095" fill="#CCA581F4" r="5"/>
</svg>